<?xml version="1.0" encoding="UTF-8" standalone="no"?>
<svg
   width="632"
   height="821"
   fill="none"
   version="1.1"
   id="svg125"
   sodipodi:docname="avatar.svg"
   inkscape:version="1.2.1 (9c6d41e410, 2022-07-14)"
   xmlns:inkscape="http://www.inkscape.org/namespaces/inkscape"
   xmlns:sodipodi="http://sodipodi.sourceforge.net/DTD/sodipodi-0.dtd"
   xmlns="http://www.w3.org/2000/svg"
   xmlns:svg="http://www.w3.org/2000/svg">
  <sodipodi:namedview
     id="namedview127"
     pagecolor="#ffffff"
     bordercolor="#000000"
     borderopacity="0.25"
     inkscape:showpageshadow="2"
     inkscape:pageopacity="0.0"
     inkscape:pagecheckerboard="0"
     inkscape:deskcolor="#d1d1d1"
     showgrid="false"
     inkscape:zoom="0.52618758"
     inkscape:cx="679.41551"
     inkscape:cy="337.33218"
     inkscape:window-width="1920"
     inkscape:window-height="1051"
     inkscape:window-x="-9"
     inkscape:window-y="-9"
     inkscape:window-maximized="1"
     inkscape:current-layer="svg125" />
  <defs
     id="defs123">
    <clipPath
       id="a">
      <path
         fill="#fff"
         d="M0 0h632v821H0z"
         id="path120" />
    </clipPath>
  </defs>
  <g
     id="g2164"
     transform="matrix(4.6325411,0,0,4.6325411,17.417015,127.61111)">
	<circle
   style="fill:#263740"
   cx="64"
   cy="64"
   r="64"
   id="circle2100" />

	<path
   style="fill:#e6e6e6"
   d="M 3.902,86.052 C 12.889,110.533 36.404,128 64,128 c 0.688,0 1.368,-0.03 2.051,-0.052 C 57.064,103.467 33.549,86 5.953,86 5.266,86 4.585,86.03 3.902,86.052 Z"
   id="path2102" />

	<g
   id="g2128">
		<path
   style="fill:#cc584c"
   d="m 66.229,40.395 c -1.971,-2.472 -7.503,-1.295 -13.833,2.94 -4.399,3.104 -11.73,16.229 -12.525,19.29 -0.795,3.061 4.902,2.307 6.121,1.59 1.929,-1.133 7.375,-9.52 7.919,-10.357 0.545,-0.838 4.149,-0.883 6.917,-1.471 0.793,-3.061 4.313,-10.315 5.401,-11.992 z"
   id="path2104" />

		<path
   style="fill:#cc584c"
   d="m 88.034,54.557 c 3.062,0.794 4.237,6.327 2.94,13.832 -1.048,5.282 -10.056,17.318 -12.526,19.289 -2.474,1.974 -4.101,-3.539 -3.943,-4.942 0.251,-2.225 5.697,-10.609 6.242,-11.448 0.545,-0.838 -0.882,-4.149 -1.472,-6.916 2.474,-1.975 7.67,-8.139 8.759,-9.815 z"
   id="path2106" />

		<path
   style="fill:#e6e6e6"
   d="M 107.633,0.51 C 105.115,-1.124 88.768,0.184 76.238,19.473 65.89,35.409 59.987,51.843 59.736,54.065 c 2.517,1.636 9.226,5.991 9.226,5.991 0,0 6.71,4.356 9.226,5.99 1.93,-1.132 15.086,-14.05 24.892,-29.146 12.524,-19.291 7.066,-34.755 4.553,-36.39 z"
   id="path2108" />

		<circle
   style="fill:#263740"
   cx="91.292"
   cy="25.67"
   r="10"
   id="circle2110" />

		<path
   style="fill:#c2e2f2"
   d="m 88.023,30.702 c -2.773,-1.804 -3.565,-5.525 -1.765,-8.3 1.804,-2.775 5.524,-3.566 8.302,-1.766 2.772,1.803 3.563,5.524 1.764,8.301 -1.803,2.776 -5.523,3.567 -8.301,1.765 z"
   id="path2112" />

		<path
   style="fill:#cc584c"
   d="m 101.096,10.574 c 3.08,2 6.449,3.199 9.863,3.658 0.352,-7.678 -1.936,-12.818 -3.326,-13.725 -1.395,-0.902 -7.021,-0.9 -13.892,2.542 1.808,2.933 4.275,5.524 7.355,7.525 z"
   id="path2114" />

		<g
   id="g2118">
			<path
   style="fill:#cc584c"
   d="m 76.598,72.167 c -0.6,0.923 -1.845,1.188 -2.768,0.589 L 55.38,60.776 C 54.457,60.175 54.192,58.93 54.791,58.007 l 2.18,-3.354 c 0.6,-0.922 1.844,-1.188 2.768,-0.588 l 18.449,11.982 c 0.924,0.6 1.188,1.844 0.59,2.769 z"
   id="path2116" />

		</g>

		<path
   style="fill:#bf5347"
   d="m 62.59,60.688 c -0.6,0.925 -1.336,2.097 -2.104,3.402 l 9.079,5.896 c 0.881,-1.233 1.651,-2.385 2.252,-3.309 0.601,-0.924 1.336,-2.096 2.104,-3.4 l -9.077,-5.896 c -0.883,1.232 -1.655,2.382 -2.254,3.307 z"
   id="path2120" />

		<path
   style="fill:#ffd464"
   d="M 57.057,61.863 C 50.44,72.051 42.108,92.694 46.508,95.551 50.906,98.408 66.374,82.403 72.992,72.21 Z"
   id="path2122" />

		<path
   style="fill:#f2b255"
   d="m 58.734,62.952 c -6.617,10.188 -9.165,20.28 -5.692,22.535 3.474,2.256 11.655,-4.178 18.272,-14.365 z"
   id="path2124" />

		
			<ellipse
   transform="matrix(-0.8387,-0.5446,0.5446,-0.8387,88.9017,153.7037)"
   style="fill:#cc584c"
   cx="67.212997"
   cy="63.687"
   rx="3.5"
   ry="16.999001"
   id="ellipse2126" />

	</g>

	<g
   id="g2134">
		
			<ellipse
   transform="matrix(-0.9264,-0.3765,0.3765,-0.9264,7.8562,194.4982)"
   style="fill:#cccccc"
   cx="22.933001"
   cy="96.481003"
   rx="6"
   ry="4.5"
   id="ellipse2130" />

		<path
   style="fill:#b3b3b3"
   d="m 23.26,100.669 c -3.07,-1.247 -4.801,-4.125 -3.865,-6.428 0.535,-1.318 1.84,-2.144 3.424,-2.39 -2.438,-0.35 -4.674,0.545 -5.424,2.39 -0.936,2.303 0.795,5.181 3.865,6.428 1.313,0.533 2.646,0.661 3.829,0.479 -0.607,-0.088 -1.22,-0.231 -1.829,-0.479 z"
   id="path2132" />

	</g>

	<g
   id="g2140">
		
			<ellipse
   transform="matrix(-0.7008,-0.7133,0.7133,-0.7008,-5.6871,199.4058)"
   style="fill:#cccccc"
   cx="38.973"
   cy="100.896"
   rx="3.9360001"
   ry="2.951"
   id="ellipse2136" />

		<path
   style="fill:#b3b3b3"
   d="m 38.051,103.457 c -1.521,-1.549 -1.813,-3.732 -0.65,-4.875 0.664,-0.655 1.664,-0.811 2.683,-0.547 -1.376,-0.845 -2.955,-0.892 -3.887,0.023 -1.163,1.145 -0.871,3.326 0.651,4.876 0.651,0.663 1.422,1.089 2.182,1.285 -0.344,-0.207 -0.676,-0.453 -0.979,-0.762 z"
   id="path2138" />

	</g>

	<g
   id="g2146">
		
			<ellipse
   transform="matrix(-0.9624,-0.2718,0.2718,-0.9624,42.0374,229.5513)"
   style="fill:#cccccc"
   cx="36.917"
   cy="111.864"
   rx="5.9679999"
   ry="4.4759998"
   id="ellipse2142" />

		<path
   style="fill:#b3b3b3"
   d="m 37.711,115.956 c -3.169,-0.896 -5.195,-3.552 -4.521,-5.931 0.382,-1.362 1.582,-2.318 3.121,-2.736 -2.447,-0.078 -4.562,1.05 -5.101,2.956 -0.673,2.378 1.354,5.035 4.525,5.93 1.356,0.384 2.688,0.363 3.839,0.054 -0.607,-0.02 -1.232,-0.094 -1.863,-0.273 z"
   id="path2144" />

	</g>

	<path
   style="fill:#ffd464"
   d="m 27.953,21 c 0,4 -1,5 -5,5 4,0 5,1 5,5 0,-4 1,-5 5,-5 -4,0 -5,-1 -5,-5 z"
   id="path2148" />

	<path
   style="fill:#ffd464"
   d="m 14.953,50 c 0,4 -1,5 -5,5 4,0 5,1 5,5 0,-4 1,-5 5,-5 -4,0 -5,-1 -5,-5 z"
   id="path2150" />

	<path
   style="fill:#ffd464"
   d="m 28.953,68 c 0,4 -1,5 -5,5 4,0 5,1 5,5 0,-4 1,-5 5,-5 -4,0 -5,-1 -5,-5 z"
   id="path2152" />

	<path
   style="fill:#ffd464"
   d="m 81.953,101 c 0,4 -1,5 -5,5 4,0 5,1 5,5 0,-4 1,-5 5,-5 -4,0 -5,-1 -5,-5 z"
   id="path2154" />

	<path
   style="fill:#ffd464"
   d="m 117.953,78 c 0,4 -1,5 -5,5 4,0 5,1 5,5 0,-4 1,-5 5,-5 -4,0 -5,-1 -5,-5 z"
   id="path2156" />

	<path
   style="fill:#ffd464"
   d="m 114.953,43 c 0,4 -1,5 -5,5 4,0 5,1 5,5 0,-4 1,-5 5,-5 -4,0 -5,-1 -5,-5 z"
   id="path2158" />

	<path
   style="fill:#ffd464"
   d="m 64.953,7 c 0,4 -1,5 -5,5 4,0 5,1 5,5 0,-4 1,-5 5,-5 -4,0 -5,-1 -5,-5 z"
   id="path2160" />

	<path
   style="fill:#ffd464"
   d="m 47.953,28 c 0,4 -1,5 -5,5 4,0 5,1 5,5 0,-4 1,-5 5,-5 -4,0 -5,-1 -5,-5 z"
   id="path2162" />

</g>
</svg>
